<svg width="14" height="22" viewBox="0 0 14 22" fill="none" xmlns="http://www.w3.org/2000/svg">
<path d="M2.89269 0.552621C2.3069 -0.0331653 1.35716 -0.0331653 0.771371 0.552621C0.185585 1.13841 0.185585 2.08815 0.771371 2.67394L2.89269 0.552621ZM9.93156 11.8341L10.9922 12.8948L13.1135 10.7735L12.0529 9.71281L9.93156 11.8341ZM0.771371 2.67394L9.93156 11.8341L12.0529 9.71281L2.89269 0.552621L0.771371 2.67394Z" fill="#800000"/>
<path d="M0.779145 18.8652C0.193359 19.4509 0.193359 20.4007 0.779145 20.9865C1.36493 21.5723 2.31468 21.5723 2.90047 20.9865L0.779145 18.8652ZM12.0607 11.8263L13.1213 10.7656L11 8.6443L9.93934 9.70496L12.0607 11.8263ZM2.90047 20.9865L12.0607 11.8263L9.93934 9.70496L0.779145 18.8652L2.90047 20.9865Z" fill="#800000"/>
</svg>
