<svg width="34" height="35" viewBox="0 0 34 35" fill="none" xmlns="http://www.w3.org/2000/svg">
<path d="M30.7487 1.09093L16.8958 14.9438L3.04288 1.09093C2.70969 0.786033 2.27172 0.621446 1.8202 0.63145C1.36869 0.641454 0.938436 0.82528 0.619085 1.14463C0.299735 1.46398 0.115909 1.89423 0.105905 2.34575C0.0959005 2.79727 0.260488 3.23524 0.56538 3.56842L14.4112 17.4213L0.561866 31.2707C0.392667 31.4319 0.25741 31.6254 0.164046 31.8397C0.0706825 32.0539 0.0210954 32.2847 0.0182009 32.5184C0.0153064 32.7521 0.0591628 32.984 0.147191 33.2006C0.23522 33.4171 0.365644 33.6138 0.530798 33.7792C0.695952 33.9446 0.892502 34.0753 1.1089 34.1636C1.32529 34.252 1.55716 34.2962 1.79087 34.2936C2.02459 34.291 2.25543 34.2418 2.46983 34.1487C2.68424 34.0556 2.87788 33.9207 3.03936 33.7517L16.8958 19.9023L30.7487 33.7552C31.0818 34.0601 31.5198 34.2247 31.9713 34.2147C32.4229 34.2047 32.8531 34.0209 33.1725 33.7015C33.4918 33.3822 33.6756 32.9519 33.6856 32.5004C33.6956 32.0489 33.531 31.6109 33.2262 31.2777L19.3733 17.4248L33.2262 3.56842C33.3954 3.40717 33.5306 3.21373 33.624 2.99946C33.7173 2.78519 33.7669 2.55441 33.7698 2.3207C33.7727 2.08699 33.7289 1.85506 33.6408 1.63854C33.5528 1.42202 33.4224 1.22529 33.2572 1.0599C33.0921 0.894511 32.8955 0.763807 32.6791 0.675472C32.4627 0.587137 32.2309 0.542952 31.9971 0.545516C31.7634 0.548079 31.5326 0.597338 31.3182 0.690398C31.1038 0.783458 30.9101 0.918441 30.7487 1.08741V1.09093Z" fill="white"/>
</svg>
