<svg width="20" height="22" viewBox="0 0 20 22" fill="none" xmlns="http://www.w3.org/2000/svg">
<path d="M18.2097 1.04497L10.001 9.5914L1.79238 1.04497C1.59495 0.85687 1.33543 0.755329 1.06787 0.761501C0.800322 0.767674 0.545374 0.881083 0.356139 1.0781C0.166905 1.27512 0.0579777 1.54056 0.0520495 1.81912C0.0461213 2.09769 0.143649 2.36789 0.324316 2.57344L8.52881 11.1199L0.322234 19.6641C0.221973 19.7636 0.141825 19.883 0.0865018 20.0151C0.0311781 20.1473 0.00179485 20.2897 7.96885e-05 20.4339C-0.00163547 20.5781 0.0243521 20.7212 0.0765142 20.8548C0.128676 20.9883 0.20596 21.1097 0.303824 21.2117C0.401688 21.3138 0.518155 21.3944 0.646381 21.4489C0.774607 21.5034 0.912003 21.5307 1.05049 21.5291C1.18898 21.5275 1.32577 21.4971 1.45282 21.4397C1.57987 21.3823 1.69461 21.299 1.7903 21.1948L10.001 12.6505L18.2097 21.1969C18.4071 21.385 18.6667 21.4866 18.9342 21.4804C19.2018 21.4742 19.4567 21.3608 19.6459 21.1638C19.8352 20.9668 19.9441 20.7013 19.95 20.4228C19.956 20.1442 19.8584 19.874 19.6778 19.6685L11.4691 11.122L19.6778 2.57344C19.778 2.47396 19.8582 2.35462 19.9135 2.22242C19.9688 2.09023 19.9982 1.94786 19.9999 1.80367C20.0016 1.65949 19.9756 1.5164 19.9235 1.38282C19.8713 1.24924 19.794 1.12786 19.6962 1.02583C19.5983 0.923795 19.4818 0.843158 19.3536 0.78866C19.2254 0.734163 19.088 0.706904 18.9495 0.708485C18.811 0.710066 18.6742 0.740456 18.5472 0.797869C18.4201 0.855282 18.3054 0.938558 18.2097 1.0428V1.04497Z" fill="#F9F4EF"/>
</svg>
